<svg id="visual" viewBox="0 0 900 600" width="900" height="600" xmlns="http://www.w3.org/2000/svg" xmlns:xlink="http://www.w3.org/1999/xlink" version="1.1"><rect width="900" height="600" fill="#121212"></rect><g><g transform="translate(20 21)"><path d="M0 -147L127.3 -73.5L127.3 73.5L0 147L-127.3 73.5L-127.3 -73.5Z" fill="none" stroke="#e34d26" stroke-width="2"></path></g><g transform="translate(835 451)"><path d="M0 -138L119.5 -69L119.5 69L0 138L-119.5 69L-119.5 -69Z" fill="none" stroke="#e34d26" stroke-width="2"></path></g><g transform="translate(546 553)"><path d="M0 -135L116.9 -67.5L116.9 67.5L0 135L-116.9 67.5L-116.9 -67.5Z" fill="none" stroke="#e34d26" stroke-width="2"></path></g><g transform="translate(863 104)"><path d="M0 -145L125.6 -72.5L125.6 72.5L0 145L-125.6 72.5L-125.6 -72.5Z" stroke="#e34d26" fill="none" stroke-width="2"></path></g><g transform="translate(2 458)"><path d="M0 -47L40.7 -23.5L40.7 23.5L0 47L-40.7 23.5L-40.7 -23.5Z" stroke="#e34d26" fill="none" stroke-width="2"></path></g></g></svg>